<?xml version="1.0" encoding="UTF-8" standalone="no"?>
<svg
   width="1in"
   height="1in"
   viewBox="0 0 1024 1024"
   fill="none"
   version="1.1"
   id="svg2"
   sodipodi:docname="bip-110-bitcoin_knots.svg"
   xml:space="preserve"
   inkscape:export-filename="bip110-bitcoin_knots.png"
   inkscape:export-xdpi="600"
   inkscape:export-ydpi="600"
   inkscape:version="1.4.3 (0d15f75, 2025-12-25)"
   xmlns:inkscape="http://www.inkscape.org/namespaces/inkscape"
   xmlns:sodipodi="http://sodipodi.sourceforge.net/DTD/sodipodi-0.dtd"
   xmlns:xlink="http://www.w3.org/1999/xlink"
   xmlns="http://www.w3.org/2000/svg"
   xmlns:svg="http://www.w3.org/2000/svg"><sodipodi:namedview
     id="namedview2"
     pagecolor="#ffffff"
     bordercolor="#000000"
     borderopacity="0.25"
     inkscape:showpageshadow="2"
     inkscape:pageopacity="0.0"
     inkscape:pagecheckerboard="0"
     inkscape:deskcolor="#d1d1d1"
     inkscape:document-units="in"
     inkscape:zoom="9.4895833"
     inkscape:cx="47.947311"
     inkscape:cy="48"
     inkscape:window-width="1920"
     inkscape:window-height="1171"
     inkscape:window-x="-9"
     inkscape:window-y="-9"
     inkscape:window-maximized="1"
     inkscape:current-layer="g3" /><!-- Designers: Kurtis Stirling, Blissmode, Skyler, and Steven Hay
     License: MIT
--><defs
     id="defs1"><clipPath
       id="circleClip"><circle
         cx="512"
         cy="512"
         r="480"
         id="circle1" /></clipPath></defs><g
     id="icon"
     clip-path="url(#circleClip)"><circle
       cx="512"
       cy="512"
       r="495"
       fill="#F7931A"
       stroke="#D27A0F"
       stroke-width="34"
       id="circle2" /><rect
       x="0"
       y="737"
       width="1024"
       height="287"
       fill="#4169E1"
       id="rect2" /><line
       x1="0"
       y1="737"
       x2="1024"
       y2="737"
       stroke="#FFFFFF"
       stroke-width="8"
       clip-path="url(#circleClip)"
       id="line2" /><text
       x="512"
       y="891"
       font-family="Arial, sans-serif"
       font-size="140"
       font-weight="bold"
       fill="#FFFFFF"
       text-anchor="middle"
       id="text2">110</text><g
       transform="translate(512, 432) scale(0.75) translate(-512, -512)"
       id="g2"><use
         xlink:href="bitcoinknots-logo.svg#logo"
         id="use2" /></g></g><g
     style="fill:none"
     id="g3"
     transform="matrix(0.85841135,0,0,0.85841135,56.638948,-30.081492)"><g
       id="logo"
       transform="translate(1.4411709e-5,-24.85211)"><path
         d="m 540.681,696.414 c -11.342,-42.663 -62.384,-73.53 -87.536,-108.6 -36.346,-50.677 -35.322,-119.511 8.694,-173.252 12.796,14.331 15.869,17.158 33.268,33.268 -30.288,38.021 -32.626,74.587 -11.441,108.085 30.818,48.73 93.012,74.711 103.149,139.635 0,0 -23.032,0.512 -46.134,0.864 z"
         fill="#171717"
         id="path1" /><path
         d="m 639.533,534.328 c 33.268,26.614 67.76,53.441 66.501,95.7 -1.851,62.148 -50.303,85.991 -116.148,87.019 -7.943,0.124 -97.245,0.512 -97.245,0.512 -4.011,23.636 -2.817,44.218 4.084,62.172 0,0 110.746,0.31 110.467,0.31 101.697,0 183.747,-48.299 183.747,-150.013 0,-60.557 -39.318,-97.236 -94.083,-131.016 -21.496,12.796 -39.41,22.52 -57.323,35.316 z"
         fill="#171717"
         id="path2" /><path
         d="m 542.287,589.092 c -10.311,-9.666 -24.055,-22.008 -33.268,-32.756 80.959,-105.435 178.208,-106.97 180.19,-186.795 1.051,-42.313 -35.383,-65.828 -75.976,-73.536 3.596,-22.609 2.569,-39.052 -1.028,-57.55 73.479,1.542 149.32,52.412 149.32,131.086 0,112.069 -122.544,103.564 -219.238,219.551 z"
         fill="#171717"
         id="path3" /><path
         d="m 406.796,718.134 h -34.05 l 0.022,-426.235 c 0,0 103.508,0 154.136,0 5.138,-17.985 4.178,-36.422 -1.622,-53.741 H 270 v 6.266 c 35.969,27.945 42.524,50.617 42.524,92.788 v 343.166 c 0,37.879 -9.638,67.806 -42.524,92.753 v 6.266 c 0,0 95.271,-0.104 137.617,-0.001 -3.867,-22.555 -4.25,-39.31 -0.821,-61.262 z"
         fill="#171717"
         id="path4" /><path
         d="m 509.715,174.475 c 22.657,22.586 37.841,54.585 40.035,86.552 2.086,30.336 -9.829,61.567 -27.467,86.362 10.046,11.6 22.085,21.809 33.4,30.831 22.265,-28.885 35.738,-61.442 37.861,-98.042 3.899,-67.234 -28.737,-119.99 -84.182,-155.178 -38.801,23.692 -62.613,50.499 -78.029,91.874 16.143,0 32.566,-0.035 48.815,0 5.652,-14.901 18.073,-31.244 29.567,-42.399 z"
         fill="#171717"
         id="path5" /><path
         d="m 538.662,801.18 c -7.328,14.974 -17.276,30.757 -29.241,42.368 -22.656,-22.585 -37.84,-55.608 -40.035,-87.575 -2.085,-30.336 3.221,-65.933 21.719,-96.25 -11.772,-12.284 -22.52,-22.008 -33.78,-32.245 -22.095,35.455 -29.61,72.744 -31.733,109.344 -3.732,64.358 30.142,122.037 84.183,155.178 36.002,-21.984 63.933,-50.782 77.492,-90.714 -16.143,0 -32.286,0 -48.534,-0.035 z"
         fill="#171717"
         id="path6" /><path
         d="M 606.039,440.395 C 573.436,417.311 500.015,378.767 477.809,314.504 h -47.373 c 16.614,71.215 75.358,116.259 128.844,160.569 14.901,-13.097 27.233,-20.805 46.759,-34.678 z"
         fill="#171717"
         id="path7" /></g></g></svg>
